#!OML:ASF H:\Terrain\Patient Classification 1\Walking\liu\liu.ASF
:FULLY-SPECIFIED
:DEGREES
324
root 9.740710 16.369699 9.218860 7.205150 9.757400 4.440560
lowerback -80.669205 -48.840099 -64.763100
upperback -10.832601 -60.044498 18.448299
thorax 42.479202 -31.030701 48.156200
lowerneck -195.855011 -53.987099 -131.923004
upperneck 217.618011 -68.182899 128.147003
head 112.211998 -27.077900 58.803402
rclavicle -0.000000 -0.000000
rhumerus -507.257996 48.397499 -825.018005
rradius 304.277008
rwrist -157.149994
rhand -288.356995 -237.283997
rfingers 71.250198
rthumb -21.930399 -536.968018
lclavicle -0.000000 -0.000000
lhumerus -221.869995 -401.069977 991.110962
lradius 413.457001
lwrist 94.424202
lhand -52.838703 -245.646988
lfingers 71.250198
lthumb 205.205994 43.707699
rfemur -429.275024 14.572200 130.250000
rtibia 348.152008
rfoot -68.302597 -18.675600
rtoes -266.364014
lfemur 245.379013 42.821899 -221.748016
ltibia -0.000000
lfoot -71.620796 -50.557098
ltoes -148.501999
325
root 9.714460 16.357000 9.405260 7.035890 9.629550 4.066670
lowerback -78.449600 -47.594601 -60.920601
upperback -11.120400 -58.874798 18.652000
thorax 40.411903 -30.330000 46.588898
lowerneck -192.679001 -52.309097 -132.078995
upperneck 212.001984 -66.849396 132.863998
head 109.511993 -26.043701 60.651001
rclavicle 0.000000 -0.000000
rhumerus -508.726013 50.267200 -827.013000
rradius 305.770996
rwrist -162.647003
rhand -291.207001 -232.765015
rfingers 71.250198
rthumb -24.682901 -532.419006
lclavicle 0.000000 -0.000000
lhumerus -229.838013 -401.631012 996.052002
lradius 411.031982
lwrist 95.341103
lhand -54.168098 -246.079010
lfingers 71.250198
lthumb 203.929001 43.412598
rfemur -429.553986 14.157100 138.219009
rtibia 360.984009
rfoot -58.999199 -14.347301
rtoes -259.582001
lfemur 252.444992 46.068501 -213.812012
ltibia -0.000000
lfoot -56.125301 -52.375797
ltoes -159.721008
326
root 9.692980 16.352100 9.601310 6.949000 9.416130 3.767580
lowerback -78.662201 -46.469799 -58.421402
upperback -11.626200 -57.603897 19.195200
thorax 39.644501 -29.632198 45.950298
lowerneck -188.945999 -51.011101 -130.438004
upperneck 208.141006 -65.390503 132.110992
head 107.056000 -25.447901 60.147400
rclavicle 0.000000 0.000000
rhumerus -509.051025 51.037796 -826.393982
rradius 305.141998
rwrist -158.374008
rhand -284.613983 -222.192001
rfingers 71.250198
rthumb -18.315199 -521.911011
lclavicle 0.000000 0.000000
lhumerus -238.919998 -397.925995 1001.940002
lradius 407.895020
lwrist 92.936493
lhand -58.561100 -247.499008
lfingers 71.250198
lthumb 199.707001 42.438503
rfemur -430.934998 14.932600 144.707001
rtibia 373.979004
rfoot -54.750099 -9.679160
rtoes -244.156006
lfemur 258.386993 50.022602 -206.763992
ltibia 0.000000
lfoot -38.598900 -49.720898
ltoes -156.490005
327
root 9.670920 16.346901 9.793550 7.037060 9.290460 3.473780
lowerback -80.319099 -46.259800 -56.423401
upperback -12.800900 -57.457901 20.355700
thorax 39.244900 -29.498899 45.998604
lowerneck -188.199997 -50.645100 -130.501999
upperneck 208.701004 -64.851700 131.546997
head 107.009003 -25.295898 60.050903
rclavicle 0.000000 -0.000000
rhumerus -507.167999 55.985699 -828.584961
rradius 302.493988
rwrist -156.570999
rhand -285.329010 -222.639008
rfingers 71.250198
rthumb -19.006199 -522.351013
lclavicle 0.000000 -0.000000
lhumerus -247.810989 -387.476990 1008.140015
lradius 402.510010
lwrist 88.852798
lhand -63.930504 -249.363998
lfingers 71.250198
lthumb 194.544998 41.103600
rfemur -432.828003 14.795099 151.199997
rtibia 385.968018
rfoot -54.762100 -2.547290
rtoes -232.492004
lfemur 262.487000 53.134499 -200.109009
ltibia -0.000000
lfoot -20.702702 -45.496002
ltoes -148.527008
